<?xml version="1.0" standalone="no"?><svg xmlns="http://www.w3.org/2000/svg" viewBox="0 0 1440 320"><path fill="#ffffff" fill-opacity="1" d="M0,64L18.5,90.7C36.9,117,74,171,111,181.3C147.7,192,185,160,222,165.3C258.5,171,295,213,332,208C369.2,203,406,149,443,117.3C480,85,517,75,554,96C590.8,117,628,171,665,170.7C701.5,171,738,117,775,85.3C812.3,53,849,43,886,74.7C923.1,107,960,181,997,186.7C1033.8,192,1071,128,1108,117.3C1144.6,107,1182,149,1218,149.3C1255.4,149,1292,107,1329,80C1366.2,53,1403,43,1422,37.3L1440,32L1440,320L1421.5,320C1403.1,320,1366,320,1329,320C1292.3,320,1255,320,1218,320C1181.5,320,1145,320,1108,320C1070.8,320,1034,320,997,320C960,320,923,320,886,320C849.2,320,812,320,775,320C738.5,320,702,320,665,320C627.7,320,591,320,554,320C516.9,320,480,320,443,320C406.2,320,369,320,332,320C295.4,320,258,320,222,320C184.6,320,148,320,111,320C73.8,320,37,320,18,320L0,320Z"></path></svg>